<?xml version="1.0" encoding="UTF-8" standalone="no"?>
<!-- Created with Inkscape (http://www.inkscape.org/) -->

<svg
   xmlns:dc="http://purl.org/dc/elements/1.1/"
   xmlns:cc="http://creativecommons.org/ns#"
   xmlns:rdf="http://www.w3.org/1999/02/22-rdf-syntax-ns#"
   xmlns:svg="http://www.w3.org/2000/svg"
   xmlns="http://www.w3.org/2000/svg"
   xmlns:sodipodi="http://sodipodi.sourceforge.net/DTD/sodipodi-0.dtd"
   xmlns:inkscape="http://www.inkscape.org/namespaces/inkscape"
   width="300"
   height="300"
   viewBox="0 0 300 300"
   version="1.1"
   id="svg2216"
   inkscape:version="0.92.3 (2405546, 2018-03-11)"
   sodipodi:docname="_NEW-MASTER-TEMPLATE-FRAME.svg">
  <defs
     id="defs2210" />
  <sodipodi:namedview
     id="base"
     pagecolor="#ffffff"
     bordercolor="#666666"
     borderopacity="1.0"
     inkscape:pageopacity="0.0"
     inkscape:pageshadow="2"
     inkscape:zoom="1.4"
     inkscape:cx="130.38644"
     inkscape:cy="140.62169"
     inkscape:document-units="px"
     inkscape:current-layer="layer1"
     showgrid="false"
     units="px"
     inkscape:window-width="1280"
     inkscape:window-height="737"
     inkscape:window-x="-8"
     inkscape:window-y="-8"
     inkscape:window-maximized="1"
     fit-margin-top="10"
     fit-margin-left="10"
     fit-margin-bottom="10"
     fit-margin-right="10"
     inkscape:showpageshadow="false"
     scale-x="1" />
  <metadata
     id="metadata2213">
    <rdf:RDF>
      <cc:Work
         rdf:about="">
        <dc:format>image/svg+xml</dc:format>
        <dc:type
           rdf:resource="http://purl.org/dc/dcmitype/StillImage" />
        <dc:title></dc:title>
      </cc:Work>
    </rdf:RDF>
  </metadata>
  <g
     inkscape:label="Layer 1"
     inkscape:groupmode="layer"
     id="layer1"
     transform="translate(250.96359,-149.09241)">


<g
       aria-label="e"
       style="font-style:normal;font-variant:normal;font-weight:normal;font-stretch:normal;font-size:5.33333349px;line-height:1.25;font-family:'Open Sans';-inkscape-font-specification:'Open Sans, Normal';font-variant-ligatures:normal;font-variant-caps:normal;font-variant-numeric:normal;font-feature-settings:normal;text-align:start;letter-spacing:0px;word-spacing:0px;writing-mode:lr-tb;text-anchor:start;fill:#000000;fill-opacity:1;stroke:none"
       id="text824"
       transform="translate(-17.172596,-2.020305)">
      <path
         d="m -98.491483,163.89145 c -34.222627,-1.89274 -79.144337,30.5916 -93.814477,50.48092 -16.92708,22.99262 -28.03432,48.33093 -30.29127,77.53015 -0.56423,7.89931 -0.56423,15.58702 0,23.06315 2.39801,28.91711 15.84806,52.73361 32.49303,75.02094 15.23437,20.45356 53.47904,48.24947 93.305427,49.81631 1.410593,-30.04557 1.410593,-60.09115 0,-90.13672 -9.027777,-1.55165 -17.985017,-1.55165 -26.871737,0 -1.26954,2.82118 -1.69271,7.8993 -1.26953,15.23437 0.28211,7.33507 -0.0705,32.98643 -1.05795,35.52549 -12.78522,-1.18553 -49.13288,-31.64637 -56.18583,-46.73968 -7.19401,-15.23437 -10.36783,-27.08333 -9.52148,-35.54688 1.97483,-1.12847 6.34766,-1.48112 13.11849,-1.05794 7.05295,0.56423 49.06235,0.35264 51.74247,-0.63477 1.12847,-7.19401 1.41059,-16.43337 0.84635,-27.7181 -1.97483,-1.41059 -43.77263,-1.90429 -51.1077,-1.48111 -7.19401,0.42317 -11.77843,-0.14106 -13.75326,-1.69271 0.14106,-9.45096 3.31489,-20.80621 9.52149,-34.06576 6.77083,-14.52908 34.02838,-45.3684 55.97424,-46.55604 0.28212,1.69271 0.28212,28.50048 0,35.97661 -0.28212,6.77083 -1e-5,11.63737 0.84635,14.59961 9.02778,1.55165 18.54926,1.55165 28.564457,0 -0.28212,-5.36024 -0.21159,-20.94726 0.21159,-46.76107 0.141053,-19.32509 -0.493713,-34.27734 -1.9043,-44.85677 z"
         style="font-style:normal;font-variant:normal;font-weight:normal;font-stretch:normal;font-size:433.33334351px;font-family:'MONOGRAMOS left';-inkscape-font-specification:'MONOGRAMOS left';fill:#000000;fill-opacity:1"
         id="path822"
         inkscape:connector-curvature="0"
         sodipodi:nodetypes="ccccccccccccccccccccccccc" />
    </g>



<g
       aria-label="l"
       style="font-style:normal;font-variant:normal;font-weight:normal;font-stretch:normal;font-size:5.33333349px;line-height:1.25;font-family:'Open Sans';-inkscape-font-specification:'Open Sans, Normal';font-variant-ligatures:normal;font-variant-caps:normal;font-variant-numeric:normal;font-feature-settings:normal;text-align:start;letter-spacing:0px;word-spacing:0px;writing-mode:lr-tb;text-anchor:start;fill:#000000;fill-opacity:1;stroke:none"
       id="text828"
       transform="translate(22)">
      <path
         d="m -16.511855,328.06379 c -9.301834,28.68842 -28.516597,56.45649 -60.846304,62.26377 -0.705294,-25.10851 -2.486513,-73.90114 -2.486513,-114.94932 0.282118,-54.87196 0.415783,-96.51044 0.274723,-108.50046 -3.268554,-2.49553 -22.445841,-6.36402 -29.285611,-6.49489 0,16.50391 0.37593,63.43827 0.23485,138.48168 -0.14106,56.28255 -1.21699,104.63123 -0.37063,139.33175 73.053074,-9.86235 110.5350415,-60.05657 121.255528,-108.43982 -8.463542,-1.12847 -18.0555563,-1.69271 -28.776043,-1.69271 z"
         style="font-style:normal;font-variant:normal;font-weight:normal;font-stretch:normal;font-size:433.33334351px;font-family:'MONOGRAMOS right';-inkscape-font-specification:'MONOGRAMOS right';fill:#000000;fill-opacity:1"
         id="path825"
         inkscape:connector-curvature="0"
         sodipodi:nodetypes="ccccccccc" />
    </g>




  </g>
</svg>
